<svg width="12" height="9" viewBox="0 0 12 9" fill="none" xmlns="http://www.w3.org/2000/svg">
  <path fill-rule="evenodd" clip-rule="evenodd"
    d="M11.7488 0.263519C11.9096 0.432301 12 0.661188 12 0.899846C12 1.1385 11.9096 1.36739 11.7488 1.53617L4.88554 8.73648C4.72466 8.90521 4.50649 9 4.279 9C4.05152 9 3.83334 8.90521 3.67246 8.73648L0.240825 5.13633C0.0845501 4.96658 -0.00192225 4.73923 3.24312e-05 4.50324C0.00198711 4.26725 0.0922125 4.04151 0.251276 3.87464C0.410339 3.70776 0.625513 3.61311 0.850454 3.61106C1.0754 3.60901 1.2921 3.69972 1.45391 3.86367L4.279 6.8275L10.5357 0.263519C10.6966 0.094788 10.9148 0 11.1423 0C11.3698 0 11.5879 0.094788 11.7488 0.263519Z"
    fill="white" />
</svg>