<svg width="151" height="48" viewBox="0 0 151 48" fill="none" xmlns="http://www.w3.org/2000/svg">
  <g clip-path="url(#clip0_1335_10524)">
    <path d="M48.5 0H0.5V48H48.5V0Z" fill="white" />
    <path
      d="M38.9621 21.4916C38.3408 23.3273 37.1783 24.8505 35.4572 25.9981C32.846 27.7387 29.1193 28.5 24.5 28.5C19.8807 28.5 16.1539 27.7387 13.543 25.9981C11.8216 24.8505 10.6591 23.3273 10.0379 21.4916C7.85273 23.665 6.5 26.6745 6.5 30C6.5 36.6273 11.8726 42 18.5 42H30.5C37.1273 42 42.5 36.6273 42.5 30C42.5 26.6745 41.1473 23.665 38.9621 21.4916Z"
      fill="#262626" />
    <path fill-rule="evenodd" clip-rule="evenodd"
      d="M24.5 6C31.1273 6 36.5 11.3726 36.5 18C36.5 20.5631 35.5745 22.3141 33.7931 23.5019C31.904 24.7613 28.8807 25.5 24.5 25.5C20.1193 25.5 17.0961 24.7613 15.207 23.5019C13.4253 22.3141 12.5 20.5631 12.5 18C12.5 11.3726 17.8726 6 24.5 6ZM17 15C16.1716 15 15.5 15.6716 15.5 16.5C15.5 17.3284 16.1716 18 17 18C17.8284 18 18.5 17.3284 18.5 16.5C18.5 15.6716 17.8284 15 17 15ZM21.5 21C21.5 19.3432 22.8432 18 24.5 18H27.5C29.1568 18 30.5 19.3432 30.5 21C30.5 22.6568 29.1568 24 27.5 24H24.5C22.8432 24 21.5 22.6568 21.5 21ZM30.5 16.5C30.5 15.6716 31.1717 15 32 15C32.8283 15 33.5 15.6716 33.5 16.5C33.5 17.3284 32.8283 18 32 18C31.1717 18 30.5 17.3284 30.5 16.5Z"
      fill="#262626" />
    <path
      d="M127.502 29.274C127.502 28.3594 128.244 27.618 129.158 27.618H143.51C145.167 27.618 146.51 28.9611 146.51 30.618V38.094C146.51 39.1677 145.64 40.038 144.566 40.038C143.493 40.038 142.622 39.1677 142.622 38.094V30.93H129.158C128.244 30.93 127.502 30.1887 127.502 29.274ZM142.622 9.366C142.622 8.29236 143.493 7.422 144.566 7.422C145.64 7.422 146.51 8.29236 146.51 9.366V24.126C146.51 25.1996 145.64 26.07 144.566 26.07C143.493 26.07 142.622 25.1996 142.622 24.126V17.574H134.954C134.06 17.574 133.334 16.8487 133.334 15.954C133.334 15.0593 134.06 14.334 134.954 14.334H142.622V9.366ZM120.95 11.934C120.95 10.2771 122.294 8.934 123.95 8.934H134.774C135.689 8.934 136.43 9.67542 136.43 10.59C136.43 11.5046 135.689 12.246 134.774 12.246H124.838V20.922C127.094 20.922 129.482 20.826 132.002 20.634C133.924 20.4693 135.783 20.2348 137.579 19.9305C138.487 19.7767 139.357 20.383 139.501 21.2926C139.636 22.1518 139.07 22.9666 138.213 23.1155C135.88 23.5208 133.377 23.8216 130.706 24.018C128.438 24.186 126.165 24.2776 123.885 24.2927C122.254 24.3035 120.95 22.9665 120.95 21.3354V11.934Z"
      fill="#262626" />
    <path
      d="M114.185 25.998C114.185 27.0319 113.347 27.87 112.313 27.87C111.28 27.87 110.441 27.0319 110.441 25.998V9.294C110.441 8.26011 111.28 7.422 112.313 7.422C113.347 7.422 114.185 8.26011 114.185 9.294V25.998ZM105.401 28.986C105.401 29.994 105.689 30.966 106.265 31.902C106.865 32.814 107.633 33.642 108.569 34.386C109.529 35.154 110.597 35.802 111.773 36.33C112.15 36.5064 112.526 36.6672 112.902 36.8118C114.017 37.2405 114.572 38.6058 113.907 39.5979C113.512 40.1859 112.789 40.4712 112.115 40.2543C111.368 40.0143 110.642 39.7263 109.937 39.39C108.905 38.91 107.957 38.37 107.093 37.77C106.229 37.146 105.461 36.486 104.789 35.79C104.141 35.118 103.637 34.422 103.277 33.702C102.893 34.422 102.365 35.118 101.693 35.79C101.045 36.486 100.289 37.146 99.4253 37.77C98.5613 38.37 97.6133 38.91 96.5813 39.39C95.8952 39.7251 95.1824 40.0125 94.4429 40.2522C93.7673 40.4712 93.0416 40.1847 92.6462 39.5949C91.9805 38.6025 92.5325 37.2351 93.6464 36.8019C94.0115 36.6597 94.3778 36.5025 94.7453 36.33C95.9213 35.802 96.9893 35.154 97.9493 34.386C98.8853 33.642 99.6533 32.814 100.253 31.902C100.853 30.966 101.153 29.994 101.153 28.986C101.153 28.1708 101.814 27.51 102.629 27.51H103.925C104.74 27.51 105.401 28.1708 105.401 28.986ZM107.849 24.306C107.849 25.3399 107.011 26.178 105.977 26.178C104.944 26.178 104.105 25.3399 104.105 24.306V18.186H100.613C99.7385 18.186 99.0293 17.4768 99.0293 16.602C98.4533 17.97 97.7333 19.242 96.8693 20.418C95.7893 21.81 94.5173 23.01 93.0533 24.018C91.9361 24.7689 90.7352 25.436 89.45 26.0191C88.7405 26.3413 87.9107 26.0931 87.4571 25.4595C86.7992 24.5405 87.2105 23.2502 88.2353 22.7737C90.6806 21.6368 92.5748 20.1796 93.9173 18.402L89.2172 18.9242C88.3877 19.0164 87.6212 18.4715 87.4355 17.6579C87.2099 16.6707 87.9233 15.7168 88.934 15.654L95.6813 15.234C95.9933 14.37 96.2213 13.422 96.3653 12.39H89.9033C88.9787 12.39 88.2293 11.6405 88.2293 10.716C88.2293 9.79146 88.9787 9.042 89.9033 9.042H97.4333C99.0902 9.042 100.459 10.3918 100.23 12.0327C100.092 13.0192 99.8837 13.9783 99.6053 14.91H104.105V9.834C104.105 8.80011 104.944 7.962 105.977 7.962C107.011 7.962 107.849 8.80011 107.849 9.834V24.306Z"
      fill="#262626" />
    <path
      d="M77.108 7.422C78.1817 7.422 79.052 8.29236 79.052 9.366V17.61H82.724C83.6387 17.61 84.38 18.3514 84.38 19.266C84.38 20.1806 83.6387 20.922 82.724 20.922H79.052V36.978C79.052 38.0517 78.1817 38.922 77.108 38.922C76.0343 38.922 75.164 38.0517 75.164 36.978V9.366C75.164 8.29236 76.0343 7.422 77.108 7.422ZM57.5 29.454C55.8431 29.454 54.5 28.1108 54.5 26.454V12.618C54.5 10.9611 55.8431 9.618 57.5 9.618H67.016C68.6729 9.618 70.016 10.9611 70.016 12.618V26.454C70.016 28.1108 68.6729 29.454 67.016 29.454H57.5ZM66.164 12.894H58.388V26.178H66.164V12.894Z"
      fill="#262626" />
  </g>
  <defs>
    <clipPath id="clip0_1335_10524">
      <rect width="150" height="48" fill="white" transform="translate(0.5)" />
    </clipPath>
  </defs>
</svg>