<svg width="179" height="203" viewBox="0 0 179 203" fill="none" xmlns="http://www.w3.org/2000/svg">
  <path
    d="M37.5011 6.96791C30.9692 9.14522 24.1211 17.0194 19.4855 21.8404C12.9241 28.6643 8.65459 41.5515 7.94784 50.857C7.26281 59.8766 7.39327 69.498 7.90951 78.5321C8.39797 87.0802 15.7029 94.1411 21.3254 99.9592C27.2039 106.042 35.6906 110.587 44.1708 111.535C56.9423 112.963 72.3926 112.924 84.5718 108.737C89.8439 106.925 92.9183 103.954 96.6461 99.9975C101.845 94.4802 108.279 89.8698 112.17 83.2468C124.436 62.3681 128.666 28.4413 104.504 14.4041C87.7522 4.67219 67.5498 2.13818 48.5405 2.13818M26.4624 108.392C22.7552 105.696 17.5583 110.83 15.0397 113.068C13.1964 114.707 12.3606 116.687 11.5516 118.971C9.76833 124.007 7.5424 128.873 5.8019 133.921C2.13753 144.547 0.891435 155.912 3.69369 166.77C6.26674 176.741 12.0574 188.442 20.2527 195.174C27.8864 201.444 37.7719 200.847 47.0462 200.847H74.4529C93.083 200.847 107.733 189.122 121.945 178.5C130.66 171.987 136.33 168.209 140.459 157.686C144.027 148.594 144.899 138.752 142.721 129.168C140.751 120.499 134.038 112.283 126.507 107.549C122.478 105.016 116.247 99.4226 111.327 99.4226M37.3387 140.469C37.6918 144.707 39.4764 147.88 40.7885 151.662C42.1719 155.65 42.2632 162.347 41.3251 166.611C40.4348 170.658 30.9965 172.898 26.9893 172.898M41.0557 149.463C42.5331 149.955 45.1289 148.703 46.4584 148.199C48.0174 147.608 49.466 146.917 51.0557 146.463M44.0557 154.213C44.0557 155.533 51.6962 154.435 52.8057 154.213M69.0569 126.963C67.0862 126.963 65.0312 126.784 63.0708 126.991C60.9668 127.212 59.4974 129.01 58.1125 130.407C55.6638 132.877 54.0878 135.326 52.3347 138.268C51.0817 140.372 51.103 143.021 50.8069 145.407C50.4398 148.366 50.1779 151.809 50.6264 154.768C50.9421 156.852 51.6962 158.741 53.668 159.518C57.8417 161.164 61.6706 161.963 66.1125 162.463C68.8733 162.774 71.6448 162.713 74.4181 162.713C76.545 162.713 78.2694 160.583 79.9181 159.463C84.3139 156.475 85.3947 151.789 85.9458 146.657C86.4684 141.791 86.9243 135.83 83.1403 132.157C81.4985 130.564 79.0504 129.184 77.0847 128.005C76.3491 127.563 75.4451 126.963 74.5569 126.963M79.5557 138.713C77.6719 140.162 77.4518 143.32 76.8057 145.463C75.9977 148.142 74.3945 149.94 72.5557 151.963M66.3329 79.5435C63.1602 81.0463 59.4534 81.1241 55.9847 81.1446C54.1261 81.1556 50.7416 81.8384 49.0463 80.8778C47.6674 80.0964 47.1907 78.456 46.5705 77.1121C45.4974 74.7871 44.4321 69.2625 46.3777 67.1345C49.0956 64.1619 51.1682 62.9589 55.0062 61.9901C58.4107 61.1307 61.7688 60.8633 65.2654 60.8633C66.9251 60.8633 68.7873 60.6337 70.395 61.1302C72.9975 61.9339 74.5031 64.5662 76.1473 66.5267C77.5141 68.1563 78.0144 72.4017 76.4438 74.0284C74.8138 75.7166 72.0137 76.0743 69.802 76.0743M39.4072 49.0657H41.2323M87.1631 45.7195H88.9882M148.402 38.1867C152.987 38.1867 158.888 37.3048 162.926 39.7989C166.305 41.8862 169.248 45.5762 171.692 48.6084C175.239 53.0086 177.177 57.2477 176.788 62.9455C176.321 69.7909 169.76 75.8472 163.272 77.4408C161.375 77.9067 159.408 77.8295 157.471 77.8295C155.7 77.8295 153.995 78.4058 152.289 78.8083C150.074 79.3306 149.155 78.572 148.56 81.169C148.125 83.0705 147.884 85.1946 147.884 87.1572M142.185 96.7441C142.185 98.991 141.354 101.408 144.229 101.408C146.141 101.408 143.532 97.6936 142.962 96.7441"
    stroke="black" stroke-opacity="0.24" stroke-width="4" stroke-linecap="round" stroke-linejoin="round" />
</svg>