<svg width="24" height="24" viewBox="0 0 24 24" fill="none" xmlns="http://www.w3.org/2000/svg">
  <path
    d="M0 12C0 5.37258 5.37258 0 12 0C18.6274 0 24 5.37258 24 12C24 18.6274 18.6274 24 12 24C5.37258 24 0 18.6274 0 12Z"
    fill="#3E9926" />
  <g clip-path="url(#clip0_1515_3655)">
    <path
      d="M11.7813 7.08807C11.7813 7.42639 11.711 7.7483 11.5842 8.03999L11.5856 8.04011L10.6084 10.2186L10.6094 10.2187L10.2523 11H15.99C16.5027 11 16.9955 10.7974 17.3614 10.4315L17.3633 10.4296C18.1519 9.6493 19.5 10.2028 19.5 11.32V13.5C19.5 16.8162 16.8161 19.5 13.5 19.5H9.5C7.01386 19.5 5 17.4862 5 15C5 14.2974 5.17935 13.6697 5.4176 13.0738C5.5556 12.7286 5.72908 12.3601 5.90158 11.9937L5.90159 11.9937C6.00934 11.7648 6.1167 11.5367 6.2148 11.3157H6.21002L6.31294 11.0938L6.35441 11H6.35643L6.90574 9.81567L6.90882 9.81601L7.16643 9.25001H6.245C5.42193 9.25001 4.75 8.57808 4.75 7.75501C4.75 7.47694 4.97693 7.25001 5.255 7.25001H5.42C5.72061 7.25001 6.00905 7.12387 6.21156 6.90516L6.21418 6.90233L7.75 5.34302V5.34927C8.17813 4.94517 8.75545 4.69745 9.39063 4.69745C10.7109 4.69745 11.7813 5.76777 11.7813 7.08807Z"
      fill="white" />
  </g>
  <defs>
    <clipPath id="clip0_1515_3655">
      <rect width="16" height="16" fill="white" transform="translate(4 4)" />
    </clipPath>
  </defs>
</svg>