<svg width="20" height="24" viewBox="0 0 20 24" fill="none" xmlns="http://www.w3.org/2000/svg">
  <g clip-path="url(#clip0_1397_7948)">
    <path fill-rule="evenodd" clip-rule="evenodd"
      d="M18.5368 8.05558C17.3281 6.81015 16.2749 5.60613 14.0519 5.48078C12.2578 5.39798 11.439 6.56061 9.76149 6.60201C8.20172 6.64341 8.31838 5.31519 5.08112 5.68893C2.27268 6.02012 -0.184708 9.01006 0.0108024 13.204C0.206313 17.7303 3.1703 24 5.93877 24C7.88847 23.9586 8.35727 22.9616 9.95592 22.9616C11.9445 22.9616 12.4133 24.207 13.9731 23.9574C16.6638 23.5423 19.1989 19.016 19.1989 17.5636C17.7169 16.7333 16.2349 15.3211 16.0394 12.9545C15.8839 10.5878 17.2481 9.09286 18.5357 8.05443L18.5368 8.05558Z"
      fill="white" />
    <path fill-rule="evenodd" clip-rule="evenodd"
      d="M9.21601 5.81313C9.0205 4.15256 10.0737 0.539339 13.7797 0C14.2085 2.78179 12.0633 5.97873 9.21601 5.81313Z"
      fill="white" />
  </g>
  <defs>
    <clipPath id="clip0_1397_7948">
      <rect width="19.2" height="24" fill="white" />
    </clipPath>
  </defs>
</svg>